<?xml version="1.0" encoding="utf-8"?>
<!-- Generator: Adobe Illustrator 19.0.0, SVG Export Plug-In . SVG Version: 6.00 Build 0)  -->
<svg version="1.1" id="Camada_1" focusable="false" xmlns="http://www.w3.org/2000/svg" xmlns:xlink="http://www.w3.org/1999/xlink"
	 x="0px" y="0px" viewBox="-57 141 496 512" style="enable-background:new -57 141 496 512;" xml:space="preserve">
<path d="M155.3,151.3c-43.8,6.3-86.2,24.1-122.2,53.8l77.4,77.4C138.3,246.7,153.8,201.3,155.3,151.3z M191,363l157.9-157.9
	c-42.4-35-93.6-53.5-145.5-56.1c-1.2,63.9-21.5,122.3-58.7,167.7L191,363z M-0.9,239.1c-29.7,36-47.5,78.4-53.8,122.2
	c50-1.5,95.5-17,131.2-44.8L-0.9,239.1z M271.3,443.3c45.3-37.1,103.7-57.4,167.7-58.7c-2.6-51.9-21.1-103.1-56.1-145.5L225,397
	L271.3,443.3L271.3,443.3z M191,431L33.1,588.9c42.4,34.9,93.6,53.5,145.5,56.1c1.3-64,21.6-122.4,58.7-167.7L191,431z M382.9,554.9
	c29.7-36,47.5-78.4,53.8-122.2c-50.1,1.6-95.5,17.1-131.2,44.8L382.9,554.9z M110.7,350.7C65.3,387.9,6.9,408.3-57,409.4
	c2.6,51.9,21.1,103.1,56.1,145.5L157,397L110.7,350.7z M226.7,642.7c43.8-6.3,86.2-24.1,122.2-53.8l-77.4-77.4
	C243.8,547.2,228.3,592.7,226.7,642.7L226.7,642.7z"/>
</svg>
