<?xml version="1.0" encoding="utf-8"?>
<!-- Generator: Adobe Illustrator 19.0.0, SVG Export Plug-In . SVG Version: 6.00 Build 0)  -->
<svg version="1.1" id="Camada_1" focusable="false" xmlns="http://www.w3.org/2000/svg" xmlns:xlink="http://www.w3.org/1999/xlink"
	 x="0px" y="0px" viewBox="-81 141 448 512" style="enable-background:new -81 141 448 512;" xml:space="preserve">
<style type="text/css">
	.st0{fill:#FCFFFF;}
</style>
<path class="st0" d="M43,469c-6.6,0-12-5.4-12-12v-24c0-6.6,5.4-12,12-12h200c6.6,0,12,5.4,12,12v24c0,6.6-5.4,12-12,12H43z
	 M367,253v352c0,26.5-21.5,48-48,48H-33c-26.5,0-48-21.5-48-48V253c0-26.5,21.5-48,48-48h48v-52c0-6.6,5.4-12,12-12h40
	c6.6,0,12,5.4,12,12v52h128v-52c0-6.6,5.4-12,12-12h40c6.6,0,12,5.4,12,12v52h48C345.5,205,367,226.5,367,253z M319,599V301H-33v298
	c0,3.3,2.7,6,6,6h340C316.3,605,319,602.3,319,599z"/>
</svg>
