<?xml version="1.0" encoding="utf-8"?>
<!-- Generator: Adobe Illustrator 19.0.0, SVG Export Plug-In . SVG Version: 6.00 Build 0)  -->
<svg version="1.1" id="Camada_1" focusable="false" xmlns="http://www.w3.org/2000/svg" xmlns:xlink="http://www.w3.org/1999/xlink"
	 x="0px" y="0px" viewBox="-49 141 512 512" style="enable-background:new -49 141 512 512;" xml:space="preserve">
<style type="text/css">
	.st0{fill:#FCFFFF;}
</style>
<path class="st0" d="M207,149C70,149-41,260-41,397S70,645,207,645s248-111,248-248S344,149,207,149z M207,597
	C96.5,597,7,507.5,7,397s89.5-200,200-200s200,89.5,200,200S317.5,597,207,597z M268.8,492.6l-84.9-61.7c-3.1-2.3-4.9-5.9-4.9-9.7
	V257c0-6.6,5.4-12,12-12h32c6.6,0,12,5.4,12,12v141.7l66.8,48.6c5.4,3.9,6.5,11.4,2.6,16.8L285.6,490
	C281.7,495.3,274.2,496.5,268.8,492.6L268.8,492.6z"/>
</svg>
