<?xml version="1.0" encoding="utf-8"?>
<!-- Generator: Adobe Illustrator 19.0.0, SVG Export Plug-In . SVG Version: 6.00 Build 0)  -->
<svg version="1.1" id="Camada_1" focusable="false" xmlns="http://www.w3.org/2000/svg" xmlns:xlink="http://www.w3.org/1999/xlink"
	 x="0px" y="0px" viewBox="-81 141 448 512" style="enable-background:new -81 141 448 512;" xml:space="preserve">
<style type="text/css">
	.st0{fill:#15A35A;}
</style>
<path class="st0" d="M143.1,282c-63.6,0-114.9,51.3-114.9,114.9s51.3,114.9,114.9,114.9S258,460.5,258,396.9S206.7,282,143.1,282z
	 M143.1,471.6c-41.1,0-74.7-33.5-74.7-74.7s33.5-74.7,74.7-74.7s74.7,33.5,74.7,74.7S184.2,471.6,143.1,471.6L143.1,471.6z
	 M289.5,277.3c0,14.9-12,26.8-26.8,26.8c-14.9,0-26.8-12-26.8-26.8c0-14.8,12-26.8,26.8-26.8S289.5,262.5,289.5,277.3z M365.6,304.5
	c-1.7-35.9-9.9-67.7-36.2-93.9c-26.2-26.2-58-34.4-93.9-36.2c-37-2.1-147.9-2.1-184.9,0c-35.8,1.7-67.6,9.9-93.9,36.1
	s-34.4,58-36.2,93.9c-2.1,37-2.1,147.9,0,184.9c1.7,35.9,9.9,67.7,36.2,93.9c26.3,26.2,58,34.4,93.9,36.2c37,2.1,147.9,2.1,184.9,0
	c35.9-1.7,67.7-9.9,93.9-36.2c26.2-26.2,34.4-58,36.2-93.9C367.7,452.3,367.7,341.5,365.6,304.5L365.6,304.5z M317.8,529
	c-7.8,19.6-22.9,34.7-42.6,42.6c-29.5,11.7-99.5,9-132.1,9s-102.7,2.6-132.1-9c-19.6-7.8-34.7-22.9-42.6-42.6
	c-11.7-29.5-9-99.5-9-132.1s-2.6-102.7,9-132.1c7.8-19.6,22.9-34.7,42.6-42.6c29.5-11.7,99.5-9,132.1-9s102.7-2.6,132.1,9
	c19.6,7.8,34.7,22.9,42.6,42.6c11.7,29.5,9,99.5,9,132.1S329.5,499.6,317.8,529z"/>
</svg>
