<?xml version="1.0" encoding="utf-8"?>
<!-- Generator: Adobe Illustrator 19.0.0, SVG Export Plug-In . SVG Version: 6.00 Build 0)  -->
<svg version="1.1" id="Camada_1" focusable="false" xmlns="http://www.w3.org/2000/svg" xmlns:xlink="http://www.w3.org/1999/xlink"
	 x="0px" y="0px" viewBox="-17 141 576 512" style="enable-background:new -17 141 576 512;" xml:space="preserve">
<style type="text/css">
	.st0{fill:#15A35A;}
</style>
<path class="st0" d="M532.7,265.1c-6.3-23.7-24.8-42.3-48.3-48.6C441.8,205,271,205,271,205s-170.8,0-213.4,11.5
	c-23.5,6.3-42,24.9-48.3,48.6C-2.1,308-2.1,397.4-2.1,397.4s0,89.4,11.4,132.3c6.3,23.7,24.8,41.5,48.3,47.8
	C100.2,589,271,589,271,589s170.8,0,213.4-11.5c23.5-6.3,42-24.2,48.3-47.8c11.4-42.9,11.4-132.3,11.4-132.3S544.1,308,532.7,265.1z
	 M215.1,478.6V316.2l142.7,81.2L215.1,478.6L215.1,478.6z"/>
</svg>
